# xmcd CD database file
#
# Track frame offsets:
#	150
#	12451
#	26299
#	40435
#	53374
#	67986
#	84326
#	96826
#	111740
#	125109
#	138746
#	151076
#	164975
#	177094
#	191169
#	204088
#	218145
#	233844
#
# Disc length: 3307 seconds
#
# Revision: 0
# Processed by: cddbd v1.5.2PL0 Copyright (c) Steve Scherf et al.
# Submitted via: CDex 1.70beta2
#
DISCID=fc0ce912
DTITLE=Various Artist - Totally Jazz Piano [CDOne)
DYEAR=2003
DGENRE=Jazz
TTITLE0=Oscar Peterson - Margie
TTITLE1=Scott Joplin - Original Rags
TTITLE2=Errol Garner - Movin' Around
TTITLE3=Fats Waller - Oh! Baby Sweet Baby
TTITLE4=George Shearing - Ghost Of A Chance
TTITLE5=Oscar Peterson - East Of The Sun (West Of The Moon)
TTITLE6=Errol Garner - Stardust
TTITLE7=Errol Garner - Night And Day
TTITLE8=Fats Waller - If It Isn't Love
TTITLE9=Oscar Peterson - Sweet Georgia Brown
TTITLE10=George Shearing - Moon Ray
TTITLE11=Oscar Peterson - Stairway To The Sun
TTITLE12=Fats Waller - Honeysuckle Rose
TTITLE13=Scott Joplin - Maple Leaf Rag
TTITLE14=Art Tatum - Gone With The Wind
TTITLE15=George Shearing - These Foolish Things
TTITLE16=Scott Joplin - Heliotrope Bouquet
TTITLE17=Oscar Peterson - Back Home Again In Indiana
EXTD=YEAR: 2003
EXTT0=
EXTT1=
EXTT2=
EXTT3=
EXTT4=
EXTT5=
EXTT6=
EXTT7=
EXTT8=
EXTT9=
EXTT10=
EXTT11=
EXTT12=
EXTT13=
EXTT14=
EXTT15=
EXTT16=
EXTT17=
PLAYORDER=
